<mxfile host="app.diagrams.net" modified="2023-08-09T04:19:39.136Z" agent="Mozilla/5.0 (Windows NT 10.0; Win64; x64) AppleWebKit/537.36 (KHTML, like Gecko) Chrome/109.0.0.0 Safari/537.36" etag="QW7412NtRtUMunQ2lDpa" version="21.1.5" type="github">
  <diagram name="Page-1" id="WcXvkVMz0cxCFA2-JgqO">
    <mxGraphModel dx="1195" dy="637" grid="1" gridSize="10" guides="1" tooltips="1" connect="1" arrows="1" fold="1" page="1" pageScale="1" pageWidth="850" pageHeight="1100" math="0" shadow="0">
      <root>
        <mxCell id="0" />
        <mxCell id="1" parent="0" />
        <mxCell id="P1I4rff0cVPffOqkXaro-1" value="&lt;font style=&quot;font-size: 14px;&quot;&gt;&lt;b&gt;Напишите класс&amp;nbsp;&lt;code style=&quot;box-sizing: border-box; background-color: rgba(202, 203, 206, 0.4); border-radius: 2px; padding: 0px 3px; font-family: &amp;quot;Fira Code&amp;quot;, monospace; color: rgb(7, 24, 56); text-align: start;&quot;&gt;LLTasks&lt;/code&gt;&lt;span style=&quot;color: rgb(7, 24, 56); font-family: &amp;quot;Fira Sans&amp;quot;, sans-serif; text-align: start; background-color: rgb(255, 255, 255);&quot;&gt;&amp;nbsp;с методом&amp;nbsp;&lt;/span&gt;&lt;code style=&quot;box-sizing: border-box; background-color: rgba(202, 203, 206, 0.4); border-radius: 2px; padding: 0px 3px; font-family: &amp;quot;Fira Code&amp;quot;, monospace; color: rgb(7, 24, 56); text-align: start;&quot;&gt;revert&lt;/code&gt;, который принимал бы на вход LinkedList и возвращает “перевернутый” список.&lt;br&gt;&lt;/b&gt;&lt;span style=&quot;box-sizing: border-box; color: rgb(0, 92, 197); font-family: &amp;quot;Source Code Pro&amp;quot;, monospace; text-align: start; background-color: rgba(202, 203, 206, 0.4);&quot; class=&quot;hljs-operator&quot;&gt;/&lt;/span&gt;&lt;span style=&quot;box-sizing: border-box; color: rgb(0, 92, 197); font-family: &amp;quot;Source Code Pro&amp;quot;, monospace; text-align: start; background-color: rgba(202, 203, 206, 0.4);&quot; class=&quot;hljs-operator&quot;&gt;/&lt;/span&gt;&lt;span style=&quot;color: rgb(7, 24, 56); font-family: &amp;quot;Source Code Pro&amp;quot;, monospace; text-align: start; background-color: rgba(202, 203, 206, 0.4);&quot;&gt; Дан &lt;br&gt;[&lt;/span&gt;&lt;span style=&quot;box-sizing: border-box; color: rgb(0, 92, 197); font-family: &amp;quot;Source Code Pro&amp;quot;, monospace; text-align: start; background-color: rgba(202, 203, 206, 0.4);&quot; class=&quot;hljs-number&quot;&gt;1&lt;/span&gt;&lt;span style=&quot;color: rgb(7, 24, 56); font-family: &amp;quot;Source Code Pro&amp;quot;, monospace; text-align: start; background-color: rgba(202, 203, 206, 0.4);&quot;&gt;, &lt;/span&gt;&lt;span style=&quot;box-sizing: border-box; color: rgb(215, 58, 73); font-family: &amp;quot;Source Code Pro&amp;quot;, monospace; text-align: start; background-color: rgba(202, 203, 206, 0.4);&quot; class=&quot;hljs-keyword&quot;&gt;One&lt;/span&gt;&lt;span style=&quot;color: rgb(7, 24, 56); font-family: &amp;quot;Source Code Pro&amp;quot;, monospace; text-align: start; background-color: rgba(202, 203, 206, 0.4);&quot;&gt;, &lt;/span&gt;&lt;span style=&quot;box-sizing: border-box; color: rgb(0, 92, 197); font-family: &amp;quot;Source Code Pro&amp;quot;, monospace; text-align: start; background-color: rgba(202, 203, 206, 0.4);&quot; class=&quot;hljs-number&quot;&gt;2&lt;/span&gt;&lt;span style=&quot;color: rgb(7, 24, 56); font-family: &amp;quot;Source Code Pro&amp;quot;, monospace; text-align: start; background-color: rgba(202, 203, 206, 0.4);&quot;&gt;, Two]&lt;br&gt;&lt;/span&gt;&lt;span style=&quot;box-sizing: border-box; color: rgb(0, 92, 197); font-family: &amp;quot;Source Code Pro&amp;quot;, monospace; text-align: start; background-color: rgba(202, 203, 206, 0.4);&quot; class=&quot;hljs-operator&quot;&gt;/&lt;/span&gt;&lt;span style=&quot;box-sizing: border-box; color: rgb(0, 92, 197); font-family: &amp;quot;Source Code Pro&amp;quot;, monospace; text-align: start; background-color: rgba(202, 203, 206, 0.4);&quot; class=&quot;hljs-operator&quot;&gt;/&lt;/span&gt;&lt;span style=&quot;color: rgb(7, 24, 56); font-family: &amp;quot;Source Code Pro&amp;quot;, monospace; text-align: start; background-color: rgba(202, 203, 206, 0.4);&quot;&gt; Вывод&lt;br&gt;[&lt;/span&gt;&lt;span style=&quot;box-sizing: border-box; color: rgb(0, 92, 197); font-family: &amp;quot;Source Code Pro&amp;quot;, monospace; text-align: start; background-color: rgba(202, 203, 206, 0.4);&quot; class=&quot;hljs-number&quot;&gt;1&lt;/span&gt;&lt;span style=&quot;color: rgb(7, 24, 56); font-family: &amp;quot;Source Code Pro&amp;quot;, monospace; text-align: start; background-color: rgba(202, 203, 206, 0.4);&quot;&gt;, &lt;/span&gt;&lt;span style=&quot;box-sizing: border-box; color: rgb(215, 58, 73); font-family: &amp;quot;Source Code Pro&amp;quot;, monospace; text-align: start; background-color: rgba(202, 203, 206, 0.4);&quot; class=&quot;hljs-keyword&quot;&gt;One&lt;/span&gt;&lt;span style=&quot;color: rgb(7, 24, 56); font-family: &amp;quot;Source Code Pro&amp;quot;, monospace; text-align: start; background-color: rgba(202, 203, 206, 0.4);&quot;&gt;, &lt;/span&gt;&lt;span style=&quot;box-sizing: border-box; color: rgb(0, 92, 197); font-family: &amp;quot;Source Code Pro&amp;quot;, monospace; text-align: start; background-color: rgba(202, 203, 206, 0.4);&quot; class=&quot;hljs-number&quot;&gt;2&lt;/span&gt;&lt;span style=&quot;color: rgb(7, 24, 56); font-family: &amp;quot;Source Code Pro&amp;quot;, monospace; text-align: start; background-color: rgba(202, 203, 206, 0.4);&quot;&gt;, Two]&lt;br&gt;[Two, &lt;/span&gt;&lt;span style=&quot;box-sizing: border-box; color: rgb(0, 92, 197); font-family: &amp;quot;Source Code Pro&amp;quot;, monospace; text-align: start; background-color: rgba(202, 203, 206, 0.4);&quot; class=&quot;hljs-number&quot;&gt;2&lt;/span&gt;&lt;span style=&quot;color: rgb(7, 24, 56); font-family: &amp;quot;Source Code Pro&amp;quot;, monospace; text-align: start; background-color: rgba(202, 203, 206, 0.4);&quot;&gt;, &lt;/span&gt;&lt;span style=&quot;box-sizing: border-box; color: rgb(215, 58, 73); font-family: &amp;quot;Source Code Pro&amp;quot;, monospace; text-align: start; background-color: rgba(202, 203, 206, 0.4);&quot; class=&quot;hljs-keyword&quot;&gt;One&lt;/span&gt;&lt;span style=&quot;color: rgb(7, 24, 56); font-family: &amp;quot;Source Code Pro&amp;quot;, monospace; text-align: start; background-color: rgba(202, 203, 206, 0.4);&quot;&gt;, &lt;/span&gt;&lt;span style=&quot;box-sizing: border-box; color: rgb(0, 92, 197); font-family: &amp;quot;Source Code Pro&amp;quot;, monospace; text-align: start; background-color: rgba(202, 203, 206, 0.4);&quot; class=&quot;hljs-number&quot;&gt;1&lt;/span&gt;&lt;span style=&quot;color: rgb(7, 24, 56); font-family: &amp;quot;Source Code Pro&amp;quot;, monospace; text-align: start; background-color: rgba(202, 203, 206, 0.4);&quot;&gt;]&lt;/span&gt;&lt;b&gt;&lt;span style=&quot;color: rgb(7, 24, 56); font-family: &amp;quot;Fira Sans&amp;quot;, sans-serif; text-align: start; background-color: rgb(255, 255, 255);&quot;&gt;&lt;br&gt;&lt;/span&gt;&lt;/b&gt;&lt;/font&gt;" style="text;html=1;strokeColor=none;fillColor=none;align=center;verticalAlign=middle;whiteSpace=wrap;rounded=0;" vertex="1" parent="1">
          <mxGeometry x="20" y="10" width="450" height="150" as="geometry" />
        </mxCell>
        <mxCell id="P1I4rff0cVPffOqkXaro-7" value="" style="edgeStyle=orthogonalEdgeStyle;rounded=0;orthogonalLoop=1;jettySize=auto;html=1;" edge="1" parent="1" source="P1I4rff0cVPffOqkXaro-5" target="P1I4rff0cVPffOqkXaro-6">
          <mxGeometry relative="1" as="geometry" />
        </mxCell>
        <mxCell id="P1I4rff0cVPffOqkXaro-5" value="Start" style="ellipse;whiteSpace=wrap;html=1;aspect=fixed;" vertex="1" parent="1">
          <mxGeometry x="385" y="170" width="80" height="80" as="geometry" />
        </mxCell>
        <mxCell id="P1I4rff0cVPffOqkXaro-9" value="" style="edgeStyle=orthogonalEdgeStyle;rounded=0;orthogonalLoop=1;jettySize=auto;html=1;" edge="1" parent="1" source="P1I4rff0cVPffOqkXaro-6" target="P1I4rff0cVPffOqkXaro-8">
          <mxGeometry relative="1" as="geometry" />
        </mxCell>
        <mxCell id="P1I4rff0cVPffOqkXaro-6" value="LinkedList" style="shape=parallelogram;perimeter=parallelogramPerimeter;whiteSpace=wrap;html=1;fixedSize=1;" vertex="1" parent="1">
          <mxGeometry x="365" y="280" width="120" height="60" as="geometry" />
        </mxCell>
        <mxCell id="P1I4rff0cVPffOqkXaro-8" value="" style="rhombus;whiteSpace=wrap;html=1;" vertex="1" parent="1">
          <mxGeometry x="360" y="390" width="130" height="110" as="geometry" />
        </mxCell>
      </root>
    </mxGraphModel>
  </diagram>
</mxfile>
